<svg
  height='300px'
  width='300px'
  fill="#14cf00"
  xmlns="http://www.w3.org/2000/svg"
  xmlns:xlink="http://www.w3.org/1999/xlink"
  version="1.1"
  x="0px"
  y="0px"
  viewBox="0 0 512 512"
  style="enable-background:new 0 0 512 512;"
  xml:space="preserve"
  >
  <g>
    <path
      d="M431.18,465.078H221.243c-5.522,0-10-4.477-10-10c0-5.522,4.478-10,10-10H431.18c14.625,0,23.678-12.28,23.678-23.659      c0-3.816-0.939-7.527-2.793-11.028L348.756,215.253c-2.584-4.881-0.722-10.933,4.159-13.517      c4.882-2.585,10.933-0.722,13.517,4.159L469.74,401.033c3.396,6.414,5.117,13.272,5.117,20.386      C474.857,445.493,455.264,465.078,431.18,465.078z M171.243,465.078h-1c-5.522,0-10-4.477-10-10c0-5.522,4.478-10,10-10h1      c5.523,0,10,4.478,10,10C181.243,460.602,176.767,465.078,171.243,465.078z M120.243,465.078H80.82      c-24.084,0-43.678-19.585-43.678-43.658c0-7.115,1.722-13.974,5.117-20.387l175.18-330.895      c7.581-14.32,22.356-23.217,38.561-23.217c16.203,0,30.979,8.896,38.561,23.217l24.614,46.494      c2.584,4.881,0.722,10.933-4.159,13.517c-4.882,2.585-10.933,0.721-13.517-4.159l-24.614-46.494      c-4.169-7.874-11.976-12.574-20.885-12.574s-16.717,4.7-20.885,12.574L59.936,410.391c-1.854,3.5-2.793,7.211-2.793,11.029      c0,11.378,9.053,23.658,23.678,23.658h39.423c5.523,0,10,4.478,10,10C130.243,460.602,125.767,465.078,120.243,465.078z       M334.208,176.387c-3.586,0-7.053-1.935-8.847-5.324l-0.468-0.884c-2.584-4.881-0.722-10.933,4.16-13.517      c4.881-2.584,10.934-0.722,13.516,4.161l0.468,0.883c2.584,4.882,0.722,10.934-4.16,13.517      C337.386,176.012,335.785,176.387,334.208,176.387z"
    ></path>
  </g>
  <g>
    <g>
      <path
        d="M256,336.862c-17.278,0-31.744-13.502-32.933-30.739l-7.565-109.698c-0.053-0.768-0.079-1.541-0.079-2.3       c0-18.187,14.809-32.982,33.012-32.982h15.131c18.203,0,33.012,14.796,33.012,32.982c0,0.759-0.026,1.531-0.079,2.296       l-7.565,109.702C287.744,323.36,273.278,336.862,256,336.862z M248.435,181.143c-7.175,0-13.012,5.824-13.012,12.982       c0,0.308,0.011,0.616,0.032,0.928l7.565,109.694c0.468,6.794,6.169,12.115,12.979,12.115c6.81,0,12.512-5.321,12.979-12.115       l7.565-109.698c0.021-0.308,0.032-0.617,0.032-0.924c0-7.158-5.837-12.982-13.012-12.982H248.435z"
      ></path>
    </g>
    <g>
      <path
        d="M256,417.407c-20.318,0-36.849-16.53-36.849-36.849c0-20.317,16.53-36.848,36.849-36.848s36.849,16.53,36.849,36.848       C292.849,400.877,276.318,417.407,256,417.407z M256,363.711c-9.29,0-16.849,7.558-16.849,16.848       c0,9.291,7.559,16.849,16.849,16.849s16.849-7.558,16.849-16.849C272.849,371.269,265.29,363.711,256,363.711z"
      ></path>
    </g>
  </g>
</svg>
